<svg width="42" height="42" viewBox="0 0 42 42" fill="none" xmlns="http://www.w3.org/2000/svg">
  <!-- Wallet body outline -->
  <path d="M7 12C7 9.8 8.8 8 11 8H31C33.2 8 35 9.8 35 12V30C35 32.2 33.2 34 31 34H11C8.8 34 7 32.2 7 30V12Z" stroke="#B02E0C" stroke-width="3" stroke-linejoin="round"/>
  <!-- Wallet flap/closure -->
  <path d="M25 17H32.5C33.9 17 35 18.1 35 19.5V22.5C35 23.9 33.9 25 32.5 25H25C23.6 25 22.5 23.9 22.5 22.5V19.5C22.5 18.1 23.6 17 25 17Z" fill="#B02E0C" stroke="#B02E0C" stroke-width="2" stroke-linejoin="round"/>
  <!-- Wallet flap clasp dot -->
  <circle cx="27.5" cy="21" r="1.5" fill="white"/>
  <!-- Down/Out Arrow representing expense -->
  <path d="M15 15L15 25M15 25L11 21M15 25L19 21" stroke="#B02E0C" stroke-width="2.5" stroke-linecap="round" stroke-linejoin="round"/>
</svg>
