<svg width="20" height="20" viewBox="0 0 20 20" fill="none" xmlns="http://www.w3.org/2000/svg">
<g clip-path="url(#clip0_1039_4250)">
<path fill-rule="evenodd" clip-rule="evenodd" d="M13.5254 14.8158V13.776C13.5254 12.26 12.8621 10.8916 11.8113 9.94707C12.3141 9.48105 12.9863 9.19512 13.7258 9.19512C14.5031 9.19512 15.2074 9.51074 15.7156 10.0189C16.225 10.5283 16.5406 11.2326 16.5406 12.0088C16.5406 12.7861 16.225 13.4904 15.7156 13.9986C15.2074 14.508 14.5031 14.8236 13.7258 14.8236C13.6586 14.8236 13.5922 14.8213 13.5254 14.8158ZM19.8051 11.1729L18.957 10.8971C18.8617 10.8662 18.7953 10.7951 18.7711 10.6998C18.648 10.2271 18.4609 9.77949 18.2195 9.37012C18.1688 9.28379 18.1652 9.18613 18.2105 9.09785L18.616 8.30293C18.6727 8.19238 18.6527 8.0627 18.5641 7.9752L17.7613 7.17129C17.6738 7.08379 17.5441 7.06387 17.4336 7.12051L16.6387 7.52559C16.55 7.56973 16.4527 7.56777 16.3664 7.5166C15.9509 7.27201 15.5034 7.08638 15.0367 6.96504C14.9414 6.94082 14.8707 6.87441 14.8395 6.7791L14.5637 5.93105C14.525 5.8127 14.4199 5.73613 14.2945 5.73613H13.1594C13.0344 5.73613 12.9289 5.8127 12.8902 5.93105L12.6145 6.7791C12.5836 6.87441 12.5125 6.94082 12.4164 6.96504C11.9501 7.08653 11.5028 7.27215 11.0875 7.5166C11.0012 7.56738 10.9035 7.56973 10.8152 7.52559L10.0203 7.12051C9.90977 7.06387 9.78008 7.08379 9.69258 7.17129L8.88867 7.9752C8.80117 8.0627 8.78125 8.19238 8.83789 8.30293L9.02266 8.66621C9.86094 8.77246 10.6371 9.08262 11.3016 9.54316C11.9262 8.92988 12.782 8.5498 13.7266 8.5498C14.682 8.5498 15.5469 8.9373 16.1727 9.56309C16.7992 10.1896 17.1859 11.0545 17.1859 12.0092C17.1859 12.9646 16.7996 13.8295 16.1727 14.4553C15.5469 15.0818 14.6824 15.4686 13.7266 15.4686C13.659 15.4686 13.5926 15.4674 13.5262 15.4631V17.5979C13.5262 17.8482 13.4563 18.083 13.3348 18.2834H14.2949C14.4199 18.2834 14.5254 18.2068 14.5641 18.0885L14.8398 17.2393C14.8707 17.1451 14.9418 17.0787 15.0371 17.0533C15.5098 16.9314 15.9574 16.7443 16.3668 16.5029C16.4531 16.4521 16.5508 16.4486 16.6391 16.4939L17.434 16.8994C17.5445 16.9561 17.6742 16.9361 17.7617 16.8475L18.5645 16.0447C18.6531 15.9572 18.673 15.8275 18.6164 15.717L18.2109 14.9209C18.1656 14.8322 18.1687 14.7361 18.2199 14.6498C18.4646 14.2345 18.6499 13.7869 18.7703 13.3201C18.7957 13.2248 18.8621 13.1529 18.9562 13.1229L19.8055 12.8471C19.9238 12.8084 20.0004 12.7033 20.0004 12.5779V11.4428C20 11.3166 19.9234 11.2115 19.8051 11.1729ZM5.72578 13.4771L6.43984 14.7439L7.15391 13.4771L6.79961 9.27051H6.08086L5.72578 13.4771ZM8.37344 9.27051H7.44648L7.80508 13.5201H7.80391C7.8082 13.5822 7.79609 13.6463 7.76289 13.7041L6.72109 15.5521C6.69226 15.6042 6.64935 15.6471 6.59727 15.676C6.44336 15.7635 6.24727 15.708 6.15977 15.5541L5.13125 13.7303C5.09023 13.6705 5.06797 13.5975 5.07461 13.5197L5.4332 9.27012H4.50625C2.02773 9.27051 0 11.2979 0 13.776V17.5971C0 17.9736 0.308984 18.2826 0.686719 18.2826H2.82578V15.5842C2.82578 15.4061 2.96992 15.2619 3.14805 15.2619C3.32617 15.2619 3.47031 15.4061 3.47031 15.5842V18.2826H9.40977V15.5842C9.40977 15.4061 9.55352 15.2619 9.73203 15.2619C9.91016 15.2619 10.0555 15.4061 10.0555 15.5842V18.2826H12.1949C12.5715 18.2826 12.8805 17.9736 12.8805 17.5971V13.776C12.8801 11.2979 10.8527 9.27051 8.37344 9.27051ZM6.44023 8.08027C8.1918 8.08027 9.62148 6.65059 9.62148 4.89902C9.62148 3.14629 8.1918 1.71777 6.44023 1.71777C4.68867 1.71777 3.25898 3.14629 3.25898 4.89902C3.25898 6.65059 4.68828 8.08027 6.44023 8.08027Z" fill="#B02E0C"/>
</g>
<defs>
<clipPath id="clip0_1039_4250">
<rect width="20" height="20" fill="white"/>
</clipPath>
</defs>
</svg>
