<svg width="20" height="20" viewBox="0 0 20 20" fill="none" xmlns="http://www.w3.org/2000/svg">
<path d="M14.134 11.1915L12.4465 10.2748L10.4173 18.7498H15.0007V12.654C15.0007 12.3549 14.9203 12.0613 14.7678 11.8039C14.6153 11.5466 14.3964 11.3351 14.134 11.1915ZM7.50065 3.74984C7.50065 3.33779 7.37847 2.935 7.14955 2.5924C6.92063 2.2498 6.59526 1.98277 6.21458 1.82509C5.8339 1.66741 5.41501 1.62615 5.01088 1.70654C4.60675 1.78692 4.23554 1.98534 3.94418 2.2767C3.65282 2.56806 3.4544 2.93927 3.37402 3.3434C3.29363 3.74753 3.33489 4.16642 3.49257 4.5471C3.65025 4.92777 3.91728 5.25315 4.25988 5.48207C4.60248 5.71099 5.00527 5.83317 5.41732 5.83317C5.8584 5.82868 6.28637 5.68262 6.63815 5.4165C6.82768 5.02845 7.08282 4.67604 7.39232 4.37484C7.46215 4.17378 7.49875 3.96267 7.50065 3.74984Z" fill="#B02E0C"/>
<path d="M10.0007 9.99984C11.6115 9.99984 12.9173 8.694 12.9173 7.08317C12.9173 5.47234 11.6115 4.1665 10.0007 4.1665C8.38982 4.1665 7.08398 5.47234 7.08398 7.08317C7.08398 8.694 8.38982 9.99984 10.0007 9.99984Z" fill="#B02E0C"/>
<path d="M16.6667 3.74984C16.6667 3.1973 16.4472 2.6674 16.0565 2.2767C15.6658 1.886 15.1359 1.6665 14.5834 1.6665C14.0308 1.6665 13.5009 1.886 13.1102 2.2767C12.7195 2.6674 12.5 3.1973 12.5 3.74984C12.5001 3.96827 12.5367 4.18515 12.6084 4.3915C12.9163 4.68771 13.1714 5.03437 13.3625 5.4165C13.7143 5.68262 14.1423 5.82868 14.5834 5.83317C14.8569 5.83317 15.1279 5.77928 15.3806 5.67459C15.6334 5.56989 15.863 5.41643 16.0565 5.22298C16.25 5.02952 16.4034 4.79986 16.5081 4.54709C16.6128 4.29433 16.6667 4.02342 16.6667 3.74984ZM6.25003 7.08317C6.25046 6.89752 6.26579 6.7122 6.29586 6.529C6.01141 6.6189 5.71501 6.66526 5.41669 6.6665C4.82099 6.66717 4.23936 6.48541 3.75003 6.14567L2.33336 6.6665C2.01369 6.78594 1.73839 7.00062 1.54465 7.28154C1.3509 7.56247 1.24807 7.89609 1.25003 8.23734V14.1665H4.16669V12.654C4.16737 12.2053 4.28882 11.765 4.51829 11.3794C4.74776 10.9937 5.07679 10.677 5.47086 10.4623L7.16669 9.53317C6.57697 8.853 6.25161 7.98339 6.25003 7.08317ZM17.6667 6.6665L16.25 6.14567C15.7607 6.48541 15.1791 6.66717 14.5834 6.6665C14.285 6.66526 13.9886 6.6189 13.7042 6.529C13.7343 6.7122 13.7496 6.89752 13.75 7.08317C13.7484 7.98339 13.4231 8.853 12.8334 9.53317L14.5292 10.4623C14.9233 10.677 15.2523 10.9937 15.4818 11.3794C15.7112 11.765 15.8327 12.2053 15.8334 12.654V14.1665H18.75V8.23734C18.752 7.89609 18.6491 7.56247 18.4554 7.28154C18.2617 7.00062 17.9864 6.78594 17.6667 6.6665ZM10.4167 11.6665V15.1998L10 16.9498L9.58336 15.1998V11.6665C9.58336 11.556 9.62726 11.45 9.7054 11.3719C9.78354 11.2937 9.88952 11.2498 10 11.2498C10.1105 11.2498 10.2165 11.2937 10.2947 11.3719C10.3728 11.45 10.4167 11.556 10.4167 11.6665Z" fill="#B02E0C"/>
<path d="M10.4167 11.6666V15.1999L10 16.9499L9.58333 15.1999V11.6666C9.58333 11.5561 9.62723 11.4501 9.70537 11.3719C9.78351 11.2938 9.88949 11.2499 10 11.2499C10.1105 11.2499 10.2165 11.2938 10.2946 11.3719C10.3728 11.4501 10.4167 11.5561 10.4167 11.6666ZM5.86667 11.1916C5.60426 11.3351 5.38534 11.5467 5.23285 11.804C5.08036 12.0613 4.99993 12.355 5 12.6541V18.7499H9.58333L7.55417 10.2749L5.86667 11.1916Z" fill="#B02E0C"/>
</svg>
