<svg width="20" height="20" viewBox="0 0 20 20" fill="none" xmlns="http://www.w3.org/2000/svg">
<path fill-rule="evenodd" clip-rule="evenodd" d="M18.171 6.875V16.875C18.171 17.3723 17.9735 17.8492 17.6218 18.2008C17.2702 18.5525 16.7933 18.75 16.296 18.75H6.29227C6.04598 18.7501 5.8021 18.7016 5.57454 18.6075C5.34698 18.5133 5.14021 18.3752 4.96604 18.201C4.79186 18.0269 4.65369 17.8202 4.55943 17.5927C4.46516 17.3652 4.41664 17.1213 4.41664 16.875V12.4175C4.72102 12.4719 5.03477 12.5 5.35414 12.5C8.28727 12.5 10.6685 10.1194 10.6685 7.1875C10.6685 4.25563 8.28727 1.875 5.35477 1.875C5.19352 1.875 5.03352 1.8825 4.87602 1.89625C5.05206 1.6931 5.26977 1.53023 5.51437 1.41871C5.75896 1.3072 6.0247 1.24966 6.29352 1.25H12.5454V5C12.5454 5.49728 12.7429 5.9742 13.0946 6.32583C13.4462 6.67746 13.9231 6.875 14.4204 6.875H18.171ZM8.16852 15.625V15C8.16852 14.8342 8.10267 14.6753 7.98546 14.5581C7.86825 14.4408 7.70928 14.375 7.54352 14.375C7.37776 14.375 7.21878 14.4408 7.10157 14.5581C6.98436 14.6753 6.91852 14.8342 6.91852 15V15.625C6.91852 15.7908 6.98436 15.9497 7.10157 16.0669C7.21878 16.1842 7.37776 16.25 7.54352 16.25C7.70928 16.25 7.86825 16.1842 7.98546 16.0669C8.10267 15.9497 8.16852 15.7908 8.16852 15.625ZM10.6698 15.625V13.125C10.6698 12.9592 10.6039 12.8003 10.4867 12.6831C10.3695 12.5658 10.2105 12.5 10.0448 12.5C9.87901 12.5 9.72003 12.5658 9.60282 12.6831C9.48561 12.8003 9.41977 12.9592 9.41977 13.125V15.625C9.41977 15.7908 9.48561 15.9497 9.60282 16.0669C9.72003 16.1842 9.87901 16.25 10.0448 16.25C10.2105 16.25 10.3695 16.1842 10.4867 16.0669C10.6039 15.9497 10.6698 15.7908 10.6698 15.625ZM13.1698 15.625V13.75C13.1698 13.5842 13.1039 13.4253 12.9867 13.3081C12.8695 13.1908 12.7105 13.125 12.5448 13.125C12.379 13.125 12.22 13.1908 12.1028 13.3081C11.9856 13.4253 11.9198 13.5842 11.9198 13.75V15.625C11.9198 15.7908 11.9856 15.9497 12.1028 16.0669C12.22 16.1842 12.379 16.25 12.5448 16.25C12.7105 16.25 12.8695 16.1842 12.9867 16.0669C13.1039 15.9497 13.1698 15.7908 13.1698 15.625ZM15.671 15.625V11.25C15.671 11.0842 15.6052 10.9253 15.488 10.8081C15.3707 10.6908 15.2118 10.625 15.046 10.625C14.8803 10.625 14.7213 10.6908 14.6041 10.8081C14.4869 10.9253 14.421 11.0842 14.421 11.25V15.625C14.421 15.7908 14.4869 15.9497 14.6041 16.0669C14.7213 16.1842 14.8803 16.25 15.046 16.25C15.2118 16.25 15.3707 16.1842 15.488 16.0669C15.6052 15.9497 15.671 15.7908 15.671 15.625ZM13.796 1.26188C14.2477 1.31353 14.6652 1.52741 14.971 1.86375L17.6841 4.84688C17.8866 5.07063 18.0316 5.3375 18.1085 5.625H14.421C14.3389 5.62525 14.2575 5.60925 14.1815 5.57793C14.1056 5.54661 14.0366 5.50058 13.9785 5.44249C13.9204 5.38441 13.8744 5.31541 13.8431 5.23947C13.8118 5.16353 13.7958 5.08215 13.796 5V1.26188ZM9.36977 7.8125C9.21992 8.76991 8.73308 9.64233 7.99696 10.2726C7.26083 10.9028 6.32383 11.2494 5.35477 11.25C4.27736 11.2495 3.24421 10.8214 2.48225 10.0597C1.72029 9.29793 1.29184 8.26491 1.29102 7.1875C1.29177 6.21836 1.63864 5.28136 2.26912 4.54534C2.8996 3.80932 3.77223 3.32268 4.72977 3.17313V6.5625C4.72977 6.89402 4.86146 7.21196 5.09588 7.44638C5.3303 7.68081 5.64824 7.8125 5.97977 7.8125H9.36977ZM5.97977 3.17313C6.83102 3.30622 7.61804 3.70616 8.2274 4.31529C8.83675 4.92442 9.23698 5.71129 9.37039 6.5625H5.97977V3.17313Z" fill="#B02E0C"/>
</svg>
