<svg width="20" height="20" viewBox="0 0 20 20" fill="none" xmlns="http://www.w3.org/2000/svg">
<path d="M17.531 17.0624H17.031V7.81249C17.031 7.55362 16.8212 7.34375 16.5623 7.34375H14.6873C14.4284 7.34375 14.2186 7.55362 14.2186 7.81249V17.0624H13.2811V10.9374C13.2811 10.6786 13.0712 10.4687 12.8123 10.4687H10.9374C10.6785 10.4687 10.4686 10.6786 10.4686 10.9374V17.0624H9.53114V12.6562C9.53114 12.3973 9.32127 12.1874 9.0624 12.1874H7.18742C6.92855 12.1874 6.71868 12.3973 6.71868 12.6562V17.0624H5.78119V13.7812C5.78119 13.5223 5.57132 13.3124 5.31245 13.3124H3.43748C3.17861 13.3124 2.96874 13.5223 2.96874 13.7812V17.0624H2.46874C2.20987 17.0624 2 17.2722 2 17.5311C2 17.79 2.20987 17.9998 2.46874 17.9998H17.531C17.7899 17.9998 17.9998 17.79 17.9998 17.5311C17.9998 17.2722 17.7899 17.0624 17.531 17.0624Z" fill="#B02E0C"/>
<path d="M2.46874 12.0719C5.39426 12.0719 8.56678 11.0213 11.4019 9.11346C13.6224 7.61926 15.4733 5.71045 16.623 3.75588L17.0783 5.45483C17.1344 5.66426 17.4054 5.8452 17.6524 5.78626C17.9042 5.7262 18.0508 5.46223 17.9838 5.21217L17.2162 2.34753C17.1492 2.0975 16.8923 1.94907 16.6421 2.0161L13.7775 2.78368C13.5274 2.85068 13.3791 3.10771 13.446 3.35776C13.5131 3.60782 13.77 3.75626 14.0201 3.6892L15.8656 3.1947C14.7929 5.05861 13.0202 6.89446 10.8785 8.33566C8.19644 10.1405 5.2098 11.1345 2.46874 11.1345C2.20987 11.1345 2 11.3443 2 11.6032C2 11.8621 2.20987 12.0719 2.46874 12.0719Z" fill="#B02E0C"/>
</svg>
