<svg width="20" height="20" viewBox="0 0 20 20" fill="none" xmlns="http://www.w3.org/2000/svg">
<path d="M4.53125 10.3125C4.12951 10.3125 3.73679 10.4316 3.40275 10.6548C3.06871 10.878 2.80836 11.1953 2.65462 11.5664C2.50088 11.9376 2.46065 12.346 2.53903 12.74C2.61741 13.1341 2.81086 13.496 3.09494 13.7801C3.37902 14.0641 3.74095 14.2576 4.13497 14.336C4.529 14.4143 4.93741 14.3741 5.30858 14.2204C5.67974 14.0666 5.99698 13.8063 6.22017 13.4723C6.44337 13.1382 6.5625 12.7455 6.5625 12.3438C6.56189 11.8052 6.34769 11.2889 5.96689 10.9081C5.58609 10.5273 5.06978 10.3131 4.53125 10.3125ZM4.53125 13.2812C4.34583 13.2812 4.16457 13.2263 4.0104 13.1233C3.85623 13.0202 3.73607 12.8738 3.66511 12.7025C3.59416 12.5312 3.57559 12.3427 3.61176 12.1609C3.64794 11.979 3.73723 11.8119 3.86834 11.6808C3.99945 11.5497 4.1665 11.4604 4.34835 11.4243C4.53021 11.3881 4.71871 11.4067 4.89002 11.4776C5.06132 11.5486 5.20774 11.6687 5.31075 11.8229C5.41377 11.9771 5.46875 12.1583 5.46875 12.3438C5.46875 12.5924 5.36998 12.8308 5.19416 13.0067C5.01835 13.1825 4.77989 13.2812 4.53125 13.2812ZM15.7813 10.3125C15.3795 10.3125 14.9868 10.4316 14.6527 10.6548C14.3187 10.878 14.0584 11.1953 13.9046 11.5664C13.7509 11.9376 13.7107 12.346 13.789 12.74C13.8674 13.1341 14.0609 13.496 14.3449 13.7801C14.629 14.0641 14.991 14.2576 15.385 14.336C15.779 14.4143 16.1874 14.3741 16.5586 14.2204C16.9297 14.0666 17.247 13.8063 17.4702 13.4723C17.6934 13.1382 17.8125 12.7455 17.8125 12.3438C17.8119 11.8052 17.5977 11.2889 17.2169 10.9081C16.8361 10.5273 16.3198 10.3131 15.7813 10.3125ZM15.7813 13.2812C15.5958 13.2812 15.4146 13.2263 15.2604 13.1233C15.1062 13.0202 14.9861 12.8738 14.9151 12.7025C14.8442 12.5312 14.8256 12.3427 14.8618 12.1609C14.8979 11.979 14.9872 11.8119 15.1183 11.6808C15.2495 11.5497 15.4165 11.4604 15.5984 11.4243C15.7802 11.3881 15.9687 11.4067 16.14 11.4776C16.3113 11.5486 16.4577 11.6687 16.5608 11.8229C16.6638 11.9771 16.7188 12.1583 16.7188 12.3438C16.7188 12.5924 16.62 12.8308 16.4442 13.0067C16.2683 13.1825 16.0299 13.2812 15.7813 13.2812Z" fill="#B02E0C"/>
<path d="M18.4922 8.63438L14.8438 7.96875L11.7377 5.39161C11.4299 5.13874 11.0439 5.00036 10.6455 5H6.06953C5.81166 4.99939 5.55699 5.0571 5.32457 5.16881C5.09215 5.28052 4.888 5.44334 4.72738 5.64508L2.74344 7.96875H1.40625C1.03342 7.96917 0.675971 8.11746 0.412338 8.38109C0.148704 8.64473 0.000413571 9.00217 0 9.375V11.0938C0.000506622 11.5494 0.181751 11.9863 0.50397 12.3085C0.826188 12.6308 1.26306 12.812 1.71875 12.8125H2.07598C2.00664 12.4509 2.01804 12.0784 2.10935 11.7217C2.20067 11.365 2.36965 11.0329 2.60421 10.7491C2.83878 10.4653 3.13314 10.2368 3.46627 10.0799C3.79939 9.92306 4.16305 9.84173 4.53125 9.84173C4.89945 9.84173 5.26311 9.92306 5.59623 10.0799C5.92936 10.2368 6.22372 10.4653 6.45829 10.7491C6.69285 11.0329 6.86183 11.365 6.95315 11.7217C7.04446 12.0784 7.05586 12.4509 6.98652 12.8125H13.326C13.2566 12.4509 13.268 12.0784 13.3594 11.7217C13.4507 11.365 13.6196 11.0329 13.8542 10.7491C14.0888 10.4653 14.3831 10.2368 14.7163 10.0799C15.0494 9.92306 15.413 9.84173 15.7812 9.84173C16.1495 9.84173 16.5131 9.92306 16.8462 10.0799C17.1794 10.2368 17.4737 10.4653 17.7083 10.7491C17.9429 11.0329 18.1118 11.365 18.2031 11.7217C18.2945 12.0784 18.3059 12.4509 18.2365 12.8125H18.2812C18.6541 12.8121 19.0115 12.6638 19.2752 12.4002C19.5388 12.1365 19.6871 11.7791 19.6875 11.4063V10.0247C19.6892 9.68783 19.5692 9.36168 19.3496 9.10623C19.13 8.85079 18.8255 8.68323 18.4922 8.63438ZM6.875 7.5C6.875 7.62433 6.82561 7.74355 6.73771 7.83146C6.6498 7.91937 6.53057 7.96875 6.40625 7.96875H4.34551C4.30069 7.96878 4.25681 7.95596 4.21906 7.93181C4.18131 7.90765 4.15128 7.87319 4.13252 7.83249C4.11376 7.79179 4.10707 7.74656 4.11322 7.70217C4.11938 7.65779 4.13814 7.61609 4.16727 7.58204L5.53117 5.98438C5.57521 5.9329 5.62988 5.89157 5.69142 5.86325C5.75296 5.83493 5.81991 5.82028 5.88766 5.82032H6.40625C6.53057 5.82032 6.6498 5.8697 6.73771 5.95761C6.82561 6.04552 6.875 6.16475 6.875 6.28907V7.5ZM9.21875 9.6875H8.59375C8.46943 9.6875 8.3502 9.63812 8.26229 9.55021C8.17439 9.4623 8.125 9.34307 8.125 9.21875C8.125 9.09443 8.17439 8.97521 8.26229 8.8873C8.3502 8.79939 8.46943 8.75 8.59375 8.75H9.21875C9.34307 8.75 9.4623 8.79939 9.55021 8.8873C9.63811 8.97521 9.6875 9.09443 9.6875 9.21875C9.6875 9.34307 9.63811 9.4623 9.55021 9.55021C9.4623 9.63812 9.34307 9.6875 9.21875 9.6875ZM12.9093 7.98024L8.43641 7.96985C8.31228 7.96956 8.19333 7.92005 8.10566 7.83217C8.01799 7.74429 7.96875 7.62523 7.96875 7.5011V6.28907C7.96875 6.16475 8.01814 6.04552 8.10604 5.95761C8.19395 5.8697 8.31318 5.82032 8.4375 5.82032H10.6855C10.7908 5.82033 10.8931 5.85583 10.9758 5.9211L13.055 7.56172C13.0934 7.5919 13.1213 7.63329 13.135 7.68011C13.1487 7.72693 13.1474 7.77686 13.1314 7.82292C13.1153 7.86899 13.0853 7.90891 13.0455 7.93711C13.0057 7.96531 12.9581 7.98039 12.9093 7.98024Z" fill="#B02E0C"/>
</svg>
