<svg width="20" height="20" viewBox="0 0 20 20" fill="none" xmlns="http://www.w3.org/2000/svg">
<path d="M9.99992 8.45687C11.5014 8.45687 12.7186 7.23968 12.7186 5.7382C12.7186 4.23672 11.5014 3.01953 9.99992 3.01953C8.49844 3.01953 7.28125 4.23672 7.28125 5.7382C7.28125 7.23968 8.49844 8.45687 9.99992 8.45687Z" fill="#B02E0C"/>
<path d="M15.4999 8.45693C16.4492 8.45693 17.2186 7.68744 17.2186 6.73823C17.2186 5.78902 16.4492 5.01953 15.4999 5.01953C14.5507 5.01953 13.7812 5.78902 13.7812 6.73823C13.7812 7.68744 14.5507 8.45693 15.4999 8.45693Z" fill="#B02E0C"/>
<path d="M4.49995 8.45693C5.44916 8.45693 6.21865 7.68744 6.21865 6.73823C6.21865 5.78902 5.44916 5.01953 4.49995 5.01953C3.55074 5.01953 2.78125 5.78902 2.78125 6.73823C2.78125 7.68744 3.55074 8.45693 4.49995 8.45693Z" fill="#B02E0C"/>
<path d="M6.19331 10.0007C5.51677 9.44644 4.90407 9.51982 4.12181 9.51982C2.95185 9.51982 2 10.466 2 11.6288V15.0415C2 15.5465 2.41218 15.9571 2.91903 15.9571C5.10728 15.9571 4.84366 15.9967 4.84366 15.8628C4.84366 13.4445 4.55724 11.6711 6.19331 10.0007Z" fill="#B02E0C"/>
<path d="M10.744 9.53199C9.37767 9.41803 8.19005 9.5333 7.16567 10.3788C5.45144 11.7519 5.78134 13.6007 5.78134 15.8624C5.78134 16.4608 6.2682 16.9568 6.87568 16.9568C13.4718 16.9568 13.7343 17.1695 14.1255 16.3033C14.2537 16.0104 14.2186 16.1035 14.2186 13.3013C14.2186 11.0755 12.2914 9.53199 10.744 9.53199ZM15.8779 9.51949C15.0914 9.51949 14.482 9.44687 13.8064 10.0004C15.4303 11.6584 15.1561 13.3108 15.1561 15.8624C15.1561 15.9972 14.9372 15.9568 17.0479 15.9568C17.5729 15.9568 17.9997 15.5315 17.9997 15.0087V11.6285C17.9997 10.4657 17.0479 9.51949 15.8779 9.51949Z" fill="#B02E0C"/>
</svg>
