<svg width="20" height="20" viewBox="0 0 20 20" fill="none" xmlns="http://www.w3.org/2000/svg">
<path d="M6.83299 3.91554C6.93438 3.98376 7.05106 4.0259 7.17265 4.03819C7.29424 4.05049 7.41699 4.03258 7.52999 3.98604C8.48299 3.59527 9.5152 3.4365 10.5416 3.52282C11.568 3.60914 12.5592 3.93808 13.4335 4.48254C13.6337 4.60528 13.8263 4.73994 14.0103 4.88579L13.3233 5.57305C13.2882 5.608 13.2643 5.65256 13.2547 5.70109C13.245 5.74962 13.2499 5.79994 13.2688 5.84566C13.2878 5.89139 13.3198 5.93047 13.361 5.95795C13.4021 5.98544 13.4505 6.00009 13.5 6.00005H16C16.0663 6.00005 16.1299 5.97371 16.1768 5.92682C16.2237 5.87994 16.25 5.81635 16.25 5.75005V3.25004C16.25 3.2006 16.2353 3.15227 16.2079 3.11117C16.1804 3.07007 16.1414 3.03803 16.0957 3.01912C16.05 3.0002 15.9998 2.99525 15.9513 3.00489C15.9028 3.01453 15.8582 3.03833 15.8233 3.07329L15.0783 3.81829C14.8696 3.64761 14.6528 3.48701 14.4288 3.33704C13.3379 2.61235 12.0858 2.16642 10.7824 2.03836C9.47899 1.9103 8.16408 2.10402 6.95299 2.60254C6.81764 2.65948 6.70229 2.7554 6.62163 2.87809C6.54096 3.00079 6.49862 3.14471 6.49999 3.29154C6.49989 3.41491 6.53022 3.53641 6.58831 3.64526C6.6464 3.75411 6.73044 3.84694 6.83299 3.91554ZM3.91523 13.1671C3.98347 13.0656 4.02561 12.9489 4.03791 12.8273C4.05021 12.7057 4.03229 12.5829 3.98573 12.4698C3.59513 11.5168 3.4365 10.4846 3.52291 9.4583C3.60932 8.43197 3.93829 7.44085 4.48273 6.56655C4.60559 6.36642 4.74033 6.17382 4.88623 5.9898L5.57323 6.6768C5.6082 6.71175 5.65274 6.73555 5.70123 6.7452C5.74971 6.75484 5.79997 6.74989 5.84565 6.73097C5.89132 6.71205 5.93036 6.68002 5.95783 6.63892C5.98531 6.59781 5.99997 6.54949 5.99998 6.50005V4.00004C5.99998 3.93374 5.97365 3.87015 5.92676 3.82326C5.87988 3.77638 5.81629 3.75004 5.74998 3.75004H3.24997C3.20054 3.75005 3.15221 3.76472 3.11111 3.79219C3.07001 3.81966 3.03797 3.8587 3.01905 3.90438C3.00014 3.95005 2.99519 4.00031 3.00483 4.0488C3.01447 4.09729 3.03827 4.14183 3.07322 4.17679L3.81823 4.92179C3.65023 5.12679 3.48872 5.3443 3.33697 5.57155C2.61233 6.66238 2.16642 7.91436 2.03836 9.21767C1.9103 10.521 2.104 11.8358 2.60247 13.0468C2.65938 13.1822 2.75528 13.2976 2.87798 13.3783C3.00067 13.459 3.14461 13.5014 3.29147 13.5001C3.41482 13.5002 3.53629 13.4699 3.6451 13.4118C3.75391 13.3537 3.8467 13.2696 3.91523 13.1671ZM13.167 16.0846C13.0656 16.0164 12.9489 15.9742 12.8274 15.9619C12.7058 15.9496 12.583 15.9675 12.47 16.0141C11.517 16.4048 10.4848 16.5635 9.45838 16.4772C8.43199 16.3908 7.44081 16.0618 6.56649 15.5173C6.36633 15.3946 6.17373 15.2599 5.98973 15.1141L6.67674 14.4268C6.71169 14.3919 6.73549 14.3473 6.74513 14.2988C6.75478 14.2503 6.74982 14.2001 6.73091 14.1544C6.71199 14.1087 6.67995 14.0697 6.63885 14.0422C6.59775 14.0148 6.54942 14.0001 6.49999 14.0001H3.99998C3.93367 14.0001 3.87008 14.0264 3.8232 14.0733C3.77632 14.1202 3.74998 14.1838 3.74998 14.2501V16.7501C3.74999 16.7995 3.76465 16.8479 3.79213 16.889C3.8196 16.9301 3.85864 16.9621 3.90431 16.981C3.94999 16.9999 4.00025 17.0049 4.04873 16.9952C4.09722 16.9856 4.14176 16.9618 4.17673 16.9268L4.92173 16.1818C5.12623 16.3493 5.34398 16.5108 5.57123 16.6631C6.66211 17.3877 7.91413 17.8336 9.21749 17.9617C10.5208 18.0898 11.8357 17.8961 13.0468 17.3976C13.1822 17.3407 13.2976 17.2448 13.3783 17.1221C13.459 16.9994 13.5014 16.8554 13.5 16.7086C13.5001 16.5852 13.4698 16.4637 13.4117 16.3549C13.3536 16.246 13.2696 16.1532 13.167 16.0846ZM16.182 15.0783C16.3498 14.8733 16.511 14.6558 16.663 14.4286C17.3877 13.3377 17.8336 12.0858 17.9616 10.7825C18.0897 9.47914 17.896 8.16431 17.3975 6.9533C17.3406 6.81791 17.2447 6.70251 17.122 6.62179C16.9993 6.54108 16.8554 6.4987 16.7085 6.50005C16.5858 6.49981 16.4649 6.52979 16.3564 6.58732C16.248 6.64486 16.1554 6.7282 16.0868 6.82998C16.0182 6.93176 15.9757 7.04886 15.9631 7.17095C15.9504 7.29304 15.968 7.41637 16.0143 7.53005C16.4049 8.48311 16.5636 9.51533 16.4772 10.5417C16.3907 11.5681 16.0618 12.5592 15.5173 13.4336C15.3944 13.6337 15.2597 13.8263 15.1138 14.0103L14.4268 13.3233C14.3918 13.2884 14.3473 13.2646 14.2988 13.2549C14.2503 13.2453 14.2 13.2502 14.1544 13.2692C14.1087 13.2881 14.0696 13.3201 14.0422 13.3612C14.0147 13.4023 14 13.4506 14 13.5001V16.0001C14 16.0664 14.0264 16.13 14.0732 16.1769C14.1201 16.2237 14.1837 16.2501 14.25 16.2501H16.75C16.7995 16.2501 16.8478 16.2354 16.8889 16.2079C16.93 16.1805 16.962 16.1414 16.9809 16.0957C16.9999 16.0501 17.0048 15.9998 16.9952 15.9513C16.9855 15.9028 16.9617 15.8583 16.9268 15.8233L16.182 15.0783Z" fill="#B02E0C"/>
<path d="M10 11.5C10.8284 11.5 11.5 10.8284 11.5 10C11.5 9.17158 10.8284 8.5 10 8.5C9.17158 8.5 8.5 9.17158 8.5 10C8.5 10.8284 9.17158 11.5 10 11.5Z" fill="#B02E0C"/>
<path d="M14 9.45052C14.0006 9.33662 13.962 9.22598 13.8908 9.13714C13.8195 9.0483 13.7198 8.98665 13.6085 8.96252L13.017 8.83102L12.96 8.69302L13.285 8.18226C13.3467 8.08645 13.3736 7.97237 13.3612 7.8591C13.3489 7.74582 13.2979 7.64024 13.217 7.56001L12.44 6.78301C12.3598 6.70214 12.2542 6.65124 12.141 6.63882C12.0277 6.6264 11.9136 6.6532 11.8178 6.71476L11.307 7.03976L11.169 6.98301L11.0375 6.39151C11.0134 6.28022 10.9517 6.1806 10.8629 6.10934C10.774 6.03807 10.6634 5.99947 10.5495 6.00001H9.45052C9.33663 5.99947 9.22602 6.03807 9.13719 6.10934C9.04835 6.1806 8.98669 6.28022 8.96252 6.39151L8.83102 6.98301L8.69302 7.04001L8.18201 6.71476C8.08622 6.65313 7.97215 6.62629 7.85892 6.63871C7.7457 6.65113 7.64017 6.70208 7.56001 6.78301L6.78251 7.56026C6.70184 7.64054 6.65113 7.74606 6.63885 7.8592C6.62656 7.97235 6.65345 8.08629 6.71501 8.18201L7.04001 8.69302L6.98301 8.83102L6.39151 8.96252C6.28019 8.98665 6.18055 9.0483 6.10928 9.13714C6.03801 9.22598 5.99943 9.33662 6.00001 9.45052V10.5495C5.99943 10.6634 6.03801 10.7741 6.10928 10.8629C6.18055 10.9517 6.28019 11.0134 6.39151 11.0375L6.98301 11.169L7.04001 11.307L6.71501 11.8178C6.65333 11.9136 6.62643 12.0277 6.63881 12.1409C6.65119 12.2542 6.7021 12.3598 6.78301 12.44L7.56001 13.217C7.64021 13.298 7.74578 13.3489 7.85905 13.3614C7.97232 13.3738 8.08643 13.3469 8.18226 13.2853L8.69302 12.9603L8.83102 13.017L8.96252 13.6085C8.98669 13.7198 9.04835 13.8194 9.13719 13.8907C9.22602 13.962 9.33663 14.0006 9.45052 14H10.5495C10.6634 14.0006 10.774 13.962 10.8629 13.8907C10.9517 13.8194 11.0134 13.7198 11.0375 13.6085L11.169 13.017L11.307 12.96L11.818 13.2853C11.9139 13.3468 12.0279 13.3736 12.1411 13.3612C12.2543 13.3488 12.3598 13.2979 12.44 13.217L13.2175 12.4398C13.2982 12.3595 13.3489 12.254 13.3612 12.1408C13.3735 12.0277 13.3466 11.9138 13.285 11.818L12.96 11.307L13.017 11.169L13.6085 11.0375C13.7198 11.0134 13.8195 10.9517 13.8908 10.8629C13.962 10.7741 14.0006 10.6634 14 10.5495V9.45052ZM10 12C9.60446 12 9.21778 11.8827 8.88888 11.663C8.55998 11.4432 8.30363 11.1308 8.15226 10.7654C8.00088 10.3999 7.96127 9.9978 8.03844 9.60984C8.11561 9.22188 8.3061 8.86551 8.5858 8.5858C8.86551 8.3061 9.22188 8.11561 9.60984 8.03844C9.9978 7.96127 10.3999 8.00088 10.7654 8.15225C11.1308 8.30363 11.4432 8.55998 11.663 8.88888C11.8827 9.21778 12 9.60446 12 10C11.9994 10.5303 11.7884 11.0386 11.4135 11.4135C11.0386 11.7884 10.5303 11.9994 10 12Z" fill="#B02E0C"/>
</svg>
