<svg width="42" height="42" viewBox="0 0 42 42" fill="none" xmlns="http://www.w3.org/2000/svg">
<path d="M24.9314 10.4887C26.6884 11.5904 27.9204 13.4546 28.1447 15.6185C28.8815 15.9651 29.6856 16.1451 30.4998 16.1458C33.578 16.1458 36.0729 13.6509 36.0729 10.5731C36.0729 7.49492 33.578 5 30.4998 5C27.4509 5.00095 24.9778 7.45129 24.9314 10.4887ZM21.2803 21.8996C24.3585 21.8996 26.8534 19.4042 26.8534 16.3265C26.8534 13.2487 24.358 10.7538 21.2803 10.7538C18.2025 10.7538 15.7062 13.2492 15.7062 16.327C15.7062 19.4047 18.2025 21.8996 21.2803 21.8996ZM23.6443 22.2795H18.9153C14.9806 22.2795 11.7796 25.481 11.7796 29.4157V35.1989L11.7943 35.2895L12.1926 35.4142C15.9476 36.5875 19.2098 36.9787 21.8949 36.9787C27.1394 36.9787 30.1792 35.4835 30.3665 35.3881L30.7388 35.1999H30.7786V29.4157C30.78 25.481 27.579 22.2795 23.6443 22.2795ZM32.8647 16.5261H28.1722C28.1246 18.3381 27.3626 20.0577 26.0524 21.3102C29.5499 22.3502 32.1088 25.5934 32.1088 29.4242V31.2064C36.742 31.0366 39.412 29.7235 39.5879 29.6353L39.9602 29.4465H40V23.6614C40 19.7272 36.799 16.5261 32.8647 16.5261ZM11.5012 16.1468C12.5914 16.1468 13.6058 15.8286 14.4651 15.2865C14.7347 13.5425 15.6626 11.9682 17.0577 10.8876C17.0634 10.7832 17.0734 10.6798 17.0734 10.5746C17.0734 7.49634 14.578 5.00142 11.5012 5.00142C8.42249 5.00142 5.92804 7.49634 5.92804 10.5746C5.92804 13.6514 8.42249 16.1468 11.5012 16.1468ZM16.5062 21.3102C15.2033 20.0637 14.4425 18.355 14.3878 16.5527C14.2138 16.5399 14.0416 16.5261 13.8643 16.5261H9.13573C5.20105 16.5261 2 19.7272 2 23.6614V29.4456L2.0147 29.5347L2.41305 29.6604C5.42536 30.6008 8.11377 31.0342 10.4489 31.1708V29.4242C10.4498 25.5934 13.0078 22.3511 16.5062 21.3102Z" fill="#B02E0C"/>
</svg>
