<svg width="34" height="34" viewBox="0 0 34 34" fill="none" xmlns="http://www.w3.org/2000/svg">
<path d="M30.5311 0H21.256C19.762 0 18.5508 1.21117 18.5508 2.70522V11.9803C18.5508 13.4743 19.762 14.6855 21.256 14.6855H30.5311C32.0251 14.6855 33.2363 13.4743 33.2363 11.9803V2.70522C33.2363 1.21117 32.0251 0 30.5311 0Z" fill="#B02E0C"/>
<path d="M33.2104 23.9809L27.8062 18.5766C27.2983 18.0708 26.6107 17.7869 25.894 17.7869C25.1772 17.7869 24.4896 18.0708 23.9818 18.5766L18.5775 23.9809C18.0713 24.4886 17.7871 25.1762 17.7871 25.8931C17.7871 26.61 18.0713 27.2976 18.5775 27.8053L23.9818 33.2096C24.4894 33.7157 25.1771 34 25.894 34C26.6109 34 27.2985 33.7157 27.8062 33.2096L33.2104 27.8053C33.717 27.2978 34.0015 26.6101 34.0015 25.8931C34.0015 25.1761 33.717 24.4884 33.2104 23.9809Z" fill="#B02E0C"/>
<path d="M11.9803 0H2.70522C1.21117 0 0 1.21117 0 2.70522V11.9803C0 13.4743 1.21117 14.6855 2.70522 14.6855H11.9803C13.4743 14.6855 14.6855 13.4743 14.6855 11.9803V2.70522C14.6855 1.21117 13.4743 0 11.9803 0Z" fill="#B02E0C"/>
<path d="M11.9803 18.5503H2.70522C1.21117 18.5503 0 19.7615 0 21.2555V30.5306C0 32.0246 1.21117 33.2358 2.70522 33.2358H11.9803C13.4743 33.2358 14.6855 32.0246 14.6855 30.5306V21.2555C14.6855 19.7615 13.4743 18.5503 11.9803 18.5503Z" fill="#B02E0C"/>
</svg>
