<svg width="18" height="18" viewBox="0 0 18 18" fill="none" xmlns="http://www.w3.org/2000/svg">
<path fill-rule="evenodd" clip-rule="evenodd" d="M10.6127 17.7891C11.5078 16.4654 11.5902 15.0358 10.8601 13.5002C10.6571 14.3241 10.2857 14.8241 9.74594 15.0003C10.2472 13.5688 9.82834 12.0222 8.48935 10.3605C8.46045 12.0767 8.04803 13.3269 7.25206 14.111C6.15553 15.1902 6.16844 16.4082 7.29073 17.7648C2.63189 15.2856 1.97461 11.9603 5.31882 7.78929C5.52624 8.79694 6.02887 9.41558 6.82677 9.64522C5.95704 5.95448 6.87212 2.80972 9.57198 0.210938C9.58858 5.97821 11.3571 6.49083 13.5932 9.06522C16.0074 12.1546 14.5886 15.7198 10.6127 17.7891Z" fill="url(#paint0_linear_1039_5689)"/>
<defs>
<linearGradient id="paint0_linear_1039_5689" x1="14.3964" y1="5.03536" x2="4.11134" y2="15.3204" gradientUnits="userSpaceOnUse">
<stop stop-color="#EF3E3D"/>
<stop offset="1" stop-color="#FFC828"/>
</linearGradient>
</defs>
</svg>
