<svg width="1920" height="500" viewBox="0 0 1920 500" fill="none" xmlns="http://www.w3.org/2000/svg">
<g clip-path="url(#clip0_1175_716)">
<rect width="1920" height="500" fill="url(#paint0_radial_1175_716)"/>
<g style="mix-blend-mode:plus-darker">
<path opacity="0.15" d="M1947.8 59.699L1952.05 68.2157L1952.91 69.958L2016.33 196.933L2016.73 197.766L2020.63 205.559C2024.13 212.548 2021.03 222.748 2013.73 228.337L2007.67 232.96L1853.98 350.451L1773.12 412.288L1692.62 421.722L1714.85 220.298L1769.35 178.616L1921.26 62.4972L1928.24 57.1422C1935.54 51.5527 1944.29 52.7101 1947.8 59.699Z" fill="#F6DCD3"/>
<path opacity="0.15" d="M1909.81 113.036L1962.13 230.258L1948.98 240.915L1904.29 275.07L1903.7 275.535L1710.81 422.876L1615.05 496.039L1580 500.147L1598.4 333.461L1646.75 296.498L1840.26 148.689L1841.49 147.723L1890.26 110.484C1897.55 104.928 1906.31 106.055 1909.81 113.065L1909.81 113.036Z" fill="#D2BBB3"/>
</g>
<g style="mix-blend-mode:plus-darker">
<path opacity="0.15" d="M257.795 -75.1758L262.05 -66.6591L262.907 -64.9167L326.331 62.0583L326.725 62.891L330.625 70.6838C334.127 77.6728 331.031 87.8731 323.735 93.4625L317.672 98.0853L163.98 215.576L83.1208 277.414L2.62001 286.847L24.851 85.4234L79.3536 43.7408L231.256 -72.3776L238.245 -77.7326C245.541 -83.322 254.293 -82.1647 257.795 -75.1758Z" fill="#F6DCD3"/>
<path opacity="0.15" d="M219.813 -21.8383L272.126 95.3829L258.981 106.04L214.291 140.195L213.702 140.661L20.8058 288.001L-74.9464 361.165L-110 365.272L-91.6028 198.586L-43.2495 161.623L150.261 13.8141L151.494 12.8482L200.261 -24.3904C207.554 -29.9467 216.31 -28.8202 219.81 -21.8096L219.813 -21.8383Z" fill="#D2BBB3"/>
</g>
</g>
<defs>
<radialGradient id="paint0_radial_1175_716" cx="0" cy="0" r="1" gradientUnits="userSpaceOnUse" gradientTransform="translate(960 250) scale(960 250)">
<stop stop-color="#EFE9E7"/>
<stop offset="1" stop-color="#F0E5E1"/>
</radialGradient>
<clipPath id="clip0_1175_716">
<rect width="1920" height="500" fill="white"/>
</clipPath>
</defs>
</svg>
