<svg width="27" height="27" viewBox="0 0 27 27" fill="none" xmlns="http://www.w3.org/2000/svg">
<path fill-rule="evenodd" clip-rule="evenodd" d="M10.5788 1.00586C11.2692 0.359585 12.1794 0 13.1251 0C14.0707 0 14.981 0.359585 15.6713 1.00586L16.9116 2.16698C17.2612 2.49423 17.7179 2.68323 18.1966 2.69942L19.8945 2.75542C20.8395 2.78666 21.7373 3.17604 22.4059 3.84463C23.0745 4.51323 23.4639 5.41102 23.4951 6.35604L23.5511 8.05398C23.567 8.53266 23.7562 8.98928 24.0836 9.33892L25.2443 10.5797C25.8903 11.27 26.2497 12.18 26.2497 13.1255C26.2497 14.0709 25.8903 14.981 25.2443 15.6713L24.0836 16.912C23.7562 17.2617 23.567 17.7183 23.5511 18.197L23.4951 19.8949C23.4639 20.8399 23.0745 21.7377 22.4059 22.4063C21.7373 23.0749 20.8395 23.4643 19.8945 23.4955L18.1966 23.5515C17.7179 23.5675 17.2613 23.7567 16.9116 24.084L15.6709 25.2442C14.9806 25.8902 14.0705 26.2497 13.1251 26.2497C12.1796 26.2497 11.2696 25.8902 10.5793 25.2442L9.33851 24.0835C8.98887 23.7562 8.53225 23.567 8.05357 23.5511L6.35563 23.4951C5.41061 23.4639 4.51282 23.0745 3.84422 22.4059C3.17563 21.7373 2.78625 20.8395 2.75501 19.8945L2.69901 18.1965C2.68314 17.7179 2.49393 17.2612 2.16657 16.9116L1.00545 15.6709C0.359428 14.9806 0 14.0705 0 13.125C0 12.1796 0.359428 11.2695 1.00545 10.5792L2.16657 9.33848C2.49379 8.98926 2.68314 8.53315 2.69945 8.05486L2.75545 6.35648C2.78669 5.41146 3.17606 4.51367 3.84466 3.84507C4.51326 3.17647 5.41105 2.78709 6.35607 2.75586L8.05401 2.69986C8.5327 2.68399 8.98933 2.49478 9.33895 2.16742L10.5788 1.00586ZM18.5763 10.2235C18.6549 10.1397 18.7161 10.0411 18.7566 9.93358C18.797 9.82603 18.8159 9.71156 18.8121 9.59671C18.8084 9.48186 18.782 9.36888 18.7345 9.26422C18.6871 9.15956 18.6195 9.06527 18.5356 8.98673C18.4518 8.90819 18.3532 8.84694 18.2457 8.80648C18.1381 8.76602 18.0236 8.74714 17.9088 8.75092C17.794 8.7547 17.681 8.78106 17.5763 8.8285C17.4717 8.87595 17.3774 8.94354 17.2988 9.02742L11.3843 15.3449L8.95132 12.7462C8.87278 12.6623 8.77849 12.5947 8.67383 12.5473C8.56917 12.4998 8.45619 12.4735 8.34134 12.4697C8.1094 12.462 7.88392 12.5469 7.71451 12.7055C7.5451 12.8641 7.44564 13.0835 7.43801 13.3155C7.43038 13.5474 7.51521 13.7729 7.67382 13.9423L10.7455 17.2235C10.8274 17.311 10.9263 17.3807 11.0361 17.4283C11.146 17.4759 11.2645 17.5005 11.3843 17.5005C11.504 17.5005 11.6225 17.4759 11.7324 17.4283C11.8422 17.3807 11.9412 17.311 12.023 17.2235L18.5763 10.2235Z" fill="#B02E0C"/>
</svg>
